<svg width="326" height="215" viewBox="0 0 326 215" fill="none" xmlns="http://www.w3.org/2000/svg">
<g filter="url(#filter0_b_12_1359)">
<mask id="path-1-inside-1_12_1359" fill="white">
<path fill-rule="evenodd" clip-rule="evenodd" d="M206.249 16.0001L10.5423 16L3.5141 23.196L3.5141 162.991L0 166.814V209L3.5141 214.5H100L119.5 192L322.486 192V166.814L326 163.216V23.196L318.972 16.0001H318.861L304.199 6.83297e-05L219.97 0L206.249 16.0001Z"/>
</mask>
<path fill-rule="evenodd" clip-rule="evenodd" d="M206.249 16.0001L10.5423 16L3.5141 23.196L3.5141 162.991L0 166.814V209L3.5141 214.5H100L119.5 192L322.486 192V166.814L326 163.216V23.196L318.972 16.0001H318.861L304.199 6.83297e-05L219.97 0L206.249 16.0001Z" fill="#151515" fill-opacity="0.5"/>
<path d="M206.249 16.0001L206.249 17.0001L206.708 17.0001L207.008 16.6511L206.249 16.0001ZM10.5423 16L10.5423 15L10.1212 15L9.82691 15.3013L10.5423 16ZM3.5141 23.196L2.79871 22.4972L2.5141 22.7886L2.5141 23.196L3.5141 23.196ZM3.5141 162.991L4.25031 163.668L4.5141 163.381L4.5141 162.991L3.5141 162.991ZM0 166.814L-0.73621 166.138L-1 166.425V166.814H0ZM0 209H-1V209.292L-0.842681 209.538L0 209ZM3.5141 214.5L2.67142 215.038L2.96634 215.5H3.5141V214.5ZM100 214.5V215.5H100.457L100.756 215.155L100 214.5ZM119.5 192L119.5 191L119.043 191L118.744 191.345L119.5 192ZM322.486 192L322.486 193L323.486 193V192H322.486ZM322.486 166.814L321.771 166.116L321.486 166.407V166.814H322.486ZM326 163.216L326.715 163.915L327 163.624V163.216H326ZM326 23.196H327V22.7887L326.715 22.4973L326 23.196ZM318.972 16.0001L319.687 15.3014L319.393 15.0001H318.972V16.0001ZM318.861 16.0001L318.124 16.6757L318.421 17.0001H318.861V16.0001ZM304.199 6.83297e-05L304.936 -0.675547L304.639 -0.999931L304.199 -0.999932L304.199 6.83297e-05ZM219.97 0L219.97 -1L219.511 -1L219.211 -0.650992L219.97 0ZM206.249 15.0001L10.5423 15L10.5423 17L206.249 17.0001L206.249 15.0001ZM9.82691 15.3013L2.79871 22.4972L4.2295 23.8947L11.2577 16.6988L9.82691 15.3013ZM2.5141 23.196L2.5141 162.991L4.5141 162.991L4.5141 23.196L2.5141 23.196ZM2.77789 162.315L-0.73621 166.138L0.73621 167.491L4.25031 163.668L2.77789 162.315ZM-1 166.814V209H1V166.814H-1ZM-0.842681 209.538L2.67142 215.038L4.35678 213.962L0.842681 208.462L-0.842681 209.538ZM3.5141 215.5H100V213.5H3.5141V215.5ZM100.756 215.155L120.256 192.655L118.744 191.345L99.2443 213.845L100.756 215.155ZM119.5 193L322.486 193L322.486 191L119.5 191L119.5 193ZM323.486 192V166.814H321.486V192H323.486ZM323.201 167.513L326.715 163.915L325.285 162.518L321.771 166.116L323.201 167.513ZM327 163.216V23.196H325V163.216H327ZM326.715 22.4973L319.687 15.3014L318.256 16.6988L325.285 23.8947L326.715 22.4973ZM318.972 15.0001H318.861V17.0001H318.972V15.0001ZM319.598 15.3245L304.936 -0.675547L303.462 0.675683L318.124 16.6757L319.598 15.3245ZM304.199 -0.999932L219.97 -1L219.97 1L304.199 1.00007L304.199 -0.999932ZM219.211 -0.650992L205.49 15.3491L207.008 16.6511L220.729 0.650992L219.211 -0.650992Z" fill="#FAE232" mask="url(#path-1-inside-1_12_1359)"/>
</g>
<defs>
<filter id="filter0_b_12_1359" x="-15" y="-15" width="356" height="244.5" filterUnits="userSpaceOnUse" color-interpolation-filters="sRGB">
<feFlood flood-opacity="0" result="BackgroundImageFix"/>
<feGaussianBlur in="BackgroundImageFix" stdDeviation="7.5"/>
<feComposite in2="SourceAlpha" operator="in" result="effect1_backgroundBlur_12_1359"/>
<feBlend mode="normal" in="SourceGraphic" in2="effect1_backgroundBlur_12_1359" result="shape"/>
</filter>
</defs>
</svg>
