<svg width="54" height="53" viewBox="0 0 54 53" fill="none" xmlns="http://www.w3.org/2000/svg">
<g clip-path="url(#clip0_333_1641)">
<path d="M28.333 18.0883L33.5076 23.2639C33.6937 23.4501 33.9956 23.4501 34.1816 23.2639L36.9091 20.5358C37.0952 20.3497 37.0952 20.048 36.9091 19.8619L28.3329 11.2837C28.1468 11.0975 27.8449 11.0975 27.6589 11.2837L19.0857 19.8588C18.8996 20.0449 18.8996 20.3466 19.0857 20.5327L21.8132 23.2607C21.9993 23.4469 22.3011 23.4469 22.4872 23.2607L27.6589 18.0883C27.8452 17.9021 28.1469 17.9021 28.333 18.0883Z" fill="#FAE232"/>
<path d="M16.0106 22.9345L13.283 25.6627C13.0969 25.8487 13.0969 26.1505 13.283 26.3365L16.0104 29.0646C16.1964 29.2508 16.4983 29.2508 16.6844 29.0646L19.412 26.3364C19.598 26.1503 19.598 25.8486 19.412 25.6625L16.6845 22.9346C16.4985 22.7484 16.1968 22.7484 16.0106 22.9345Z" fill="#FAE232"/>
<path d="M28.3335 40.7165L36.9113 32.1367C37.0973 31.9506 37.0973 31.6487 36.911 31.4626L34.182 28.7361C33.9958 28.5501 33.6942 28.5502 33.5082 28.7363L28.3335 33.9118C28.1474 34.098 27.8456 34.098 27.6595 33.9118L22.4874 28.7389C22.3014 28.5529 22 28.5527 21.8139 28.7384L19.0823 31.4629C18.8958 31.649 18.8955 31.9509 19.0818 32.1372L27.6595 40.7164C27.8457 40.9026 28.1474 40.9026 28.3335 40.7165Z" fill="#FAE232"/>
<path d="M39.3093 22.9359L36.5817 25.6641C36.3956 25.8502 36.3956 26.1519 36.5817 26.338L39.3092 29.0661C39.4953 29.2523 39.7971 29.2523 39.9832 29.0661L42.7108 26.3379C42.8969 26.1518 42.8969 25.8501 42.7108 25.664L39.9833 22.9359C39.7971 22.7499 39.4954 22.7499 39.3093 22.9359Z" fill="#FAE232"/>
<path d="M31.1132 25.6627L28.3339 22.8828C28.1479 22.6966 27.846 22.6966 27.66 22.8828L24.8806 25.6627C24.6946 25.8488 24.6946 26.1505 24.8806 26.3366L27.66 29.1167C27.846 29.3029 28.1479 29.3029 28.3339 29.1167L31.1132 26.3366C31.2993 26.1504 31.2993 25.8488 31.1132 25.6627Z" fill="#FAE232"/>
</g>
<circle cx="27.4969" cy="26.5" r="26" stroke="#FAE232"/>
<defs>
<clipPath id="clip0_333_1641">
<rect width="30" height="30" fill="white" transform="translate(12.9969 11)"/>
</clipPath>
</defs>
</svg>
