<svg width="53" height="53" viewBox="0 0 53 53" fill="none" xmlns="http://www.w3.org/2000/svg">
<g clip-path="url(#clip0_335_1643)">
<path d="M27.336 18.0883L32.5107 23.2639C32.6968 23.4501 32.9986 23.4501 33.1847 23.2639L35.9122 20.5358C36.0983 20.3497 36.0983 20.048 35.9122 19.8619L27.3359 11.2837C27.1498 11.0975 26.848 11.0975 26.6619 11.2837L18.0888 19.8588C17.9027 20.0449 17.9027 20.3466 18.0888 20.5327L20.8163 23.2607C21.0023 23.4469 21.3042 23.4469 21.4903 23.2607L26.6619 18.0883C26.8482 17.9021 27.1499 17.9021 27.336 18.0883Z" fill="#FAE232"/>
<path d="M15.0137 22.9345L12.286 25.6627C12.1 25.8487 12.1 26.1505 12.286 26.3365L15.0134 29.0646C15.1995 29.2508 15.5013 29.2508 15.6874 29.0646L18.415 26.3364C18.6011 26.1503 18.6011 25.8486 18.415 25.6625L15.6875 22.9346C15.5016 22.7484 15.1998 22.7484 15.0137 22.9345Z" fill="#FAE232"/>
<path d="M27.3365 40.7165L35.9143 32.1367C36.1004 31.9506 36.1004 31.6487 35.9141 31.4626L33.1851 28.7361C32.9989 28.5501 32.6973 28.5502 32.5112 28.7363L27.3365 33.9118C27.1505 34.098 26.8486 34.098 26.6626 33.9118L21.4904 28.7389C21.3045 28.5529 21.0031 28.5527 20.8169 28.7384L18.0854 31.4629C17.8988 31.649 17.8986 31.9509 18.0849 32.1372L26.6626 40.7164C26.8487 40.9026 27.1505 40.9026 27.3365 40.7165Z" fill="#FAE232"/>
<path d="M38.3124 22.9359L35.5847 25.6641C35.3987 25.8502 35.3987 26.1519 35.5847 26.338L38.3122 29.0661C38.4983 29.2523 38.8002 29.2523 38.9862 29.0661L41.7138 26.3379C41.8999 26.1518 41.8999 25.8501 41.7138 25.664L38.9863 22.9359C38.8002 22.7499 38.4984 22.7499 38.3124 22.9359Z" fill="#FAE232"/>
<path d="M30.1163 25.6627L27.337 22.8828C27.1509 22.6966 26.8491 22.6966 26.663 22.8828L23.8837 25.6627C23.6976 25.8488 23.6976 26.1505 23.8837 26.3366L26.663 29.1167C26.8491 29.3029 27.1509 29.3029 27.337 29.1167L30.1163 26.3366C30.3024 26.1504 30.3024 25.8488 30.1163 25.6627Z" fill="#FAE232"/>
</g>
<circle cx="26.5" cy="26.5" r="25" stroke="#FAE232" stroke-width="3"/>
<defs>
<clipPath id="clip0_335_1643">
<rect width="30" height="30" fill="white" transform="translate(12 11)"/>
</clipPath>
</defs>
</svg>
