<svg width="566" height="103" viewBox="0 0 566 103" fill="none" xmlns="http://www.w3.org/2000/svg">
<g clip-path="url(#clip0_296_876)">
<g clip-path="url(#clip1_296_876)">
<g filter="url(#filter0_d_296_876)">
<path d="M31.1981 69.8347V30.912L40.7217 21.3883H69.0443L78.4023 30.7463V39.6075H67.1395V34.8871L63.2472 30.9948H46.6844L42.4608 35.2183V65.5284L46.6844 69.7519H63.2472L67.1395 65.8597V61.1392H78.4023V70.0004L69.0443 79.3584H40.7217L31.1981 69.8347ZM135.981 60.1455V79.3584H124.718V62.7127L119.749 57.1641H101.696V79.3584H90.433V21.3883H126.789L135.65 30.3323V47.8889L130.018 53.6031L135.981 60.1455ZM101.696 47.8889H121.654L124.553 44.9904V33.7277L121.654 30.8292H101.696V47.8889ZM164.078 55.6735L143.457 21.3883H155.796L169.626 45.1561H169.792L183.622 21.3883H195.961L175.34 55.6735V79.3584H164.078V55.6735ZM205.467 21.3883H241.823L250.684 30.3323V50.6218L241.74 59.6486H216.73V79.3584H205.467V21.3883ZM236.688 50.2077L239.587 47.3092V33.7277L236.688 30.8292H216.73V50.2077H236.688ZM275.101 30.912H257.792V21.3883H303.672V30.912H286.363V79.3584H275.101V30.912ZM314.436 21.3883H356.34V30.912H325.699V45.5701H353.939V54.9282H325.699V69.8347H356.34V79.3584H314.436V21.3883ZM414.347 60.1455V79.3584H403.085V62.7127L398.116 57.1641H380.062V79.3584H368.799V21.3883H405.155L414.016 30.3323V47.8889L408.385 53.6031L414.347 60.1455ZM380.062 47.8889H400.02L402.919 44.9904V33.7277L400.02 30.8292H380.062V47.8889ZM474.372 60.1455V79.3584H463.109V62.7127L458.14 57.1641H440.086V79.3584H428.824V21.3883H465.179L474.04 30.3323V47.8889L468.409 53.6031L474.372 60.1455ZM440.086 47.8889H460.045L462.943 44.9904V33.7277L460.045 30.8292H440.086V47.8889ZM505.079 21.3883H515.348L536.549 79.3584H525.121L520.4 66.5222H500.028L495.307 79.3584H483.879L505.079 21.3883ZM517.916 57.247L510.214 35.2183H510.048L502.595 57.247H517.916Z" fill="white"/>
</g>
</g>
<g clip-path="url(#clip2_296_876)">
<g filter="url(#filter1_d_296_876)">
<path d="M33.2264 66.5796V27.6568L42.75 18.1332H71.0726L80.4306 27.4912V36.3524H69.1678V31.6319L65.2756 27.7397H48.7127L44.4892 31.9632V62.2733L48.7127 66.4968H65.2756L69.1678 62.6045V57.8841H80.4306V66.7452L71.0726 76.1033H42.75L33.2264 66.5796ZM138.009 56.8903V76.1033H126.746V59.4576L121.778 53.909H103.724V76.1033H92.4613V18.1332H128.817L137.678 27.0772V44.6338L132.047 50.348L138.009 56.8903ZM103.724 44.6338H123.682L126.581 41.7353V30.4725L123.682 27.574H103.724V44.6338ZM166.106 52.4184L145.485 18.1332H157.825L171.655 41.9009H171.82L185.65 18.1332H197.99L177.369 52.4184V76.1033H166.106V52.4184ZM207.496 18.1332H243.851L252.712 27.0772V47.3667L243.768 56.3934H218.758V76.1033H207.496V18.1332ZM238.717 46.9526L241.615 44.0541V30.4725L238.717 27.574H218.758V46.9526H238.717ZM277.129 27.6568H259.821V18.1332H305.7V27.6568H288.392V76.1033H277.129V27.6568ZM316.465 18.1332H358.369V27.6568H327.727V42.315H355.967V51.673H327.727V66.5796H358.369V76.1033H316.465V18.1332ZM416.376 56.8903V76.1033H405.113V59.4576L400.144 53.909H382.09V76.1033H370.828V18.1332H407.183L416.044 27.0772V44.6338L410.413 50.348L416.376 56.8903ZM382.09 44.6338H402.049L404.947 41.7353V30.4725L402.049 27.574H382.09V44.6338ZM476.4 56.8903V76.1033H465.137V59.4576L460.168 53.909H442.115V76.1033H430.852V18.1332H467.207L476.069 27.0772V44.6338L470.437 50.348L476.4 56.8903ZM442.115 44.6338H462.073L464.971 41.7353V30.4725L462.073 27.574H442.115V44.6338ZM507.108 18.1332H517.377L538.577 76.1033H527.149L522.428 63.267H502.056L497.336 76.1033H485.907L507.108 18.1332ZM519.944 53.9918L512.242 31.9632H512.077L504.623 53.9918H519.944Z" fill="white"/>
</g>
</g>
</g>
<defs>
<filter id="filter0_d_296_876" x="20.5507" y="13.107" width="524.28" height="76.899" filterUnits="userSpaceOnUse" color-interpolation-filters="sRGB">
<feFlood flood-opacity="0" result="BackgroundImageFix"/>
<feColorMatrix in="SourceAlpha" type="matrix" values="0 0 0 0 0 0 0 0 0 0 0 0 0 0 0 0 0 0 127 0" result="hardAlpha"/>
<feOffset dx="-1.18306" dy="1.18306"/>
<feGaussianBlur stdDeviation="4.73225"/>
<feComposite in2="hardAlpha" operator="out"/>
<feColorMatrix type="matrix" values="0 0 0 0 1 0 0 0 0 1 0 0 0 0 1 0 0 0 0.75 0"/>
<feBlend mode="normal" in2="BackgroundImageFix" result="effect1_dropShadow_296_876"/>
<feBlend mode="normal" in="SourceGraphic" in2="effect1_dropShadow_296_876" result="shape"/>
</filter>
<filter id="filter1_d_296_876" x="22.579" y="9.85186" width="524.28" height="76.899" filterUnits="userSpaceOnUse" color-interpolation-filters="sRGB">
<feFlood flood-opacity="0" result="BackgroundImageFix"/>
<feColorMatrix in="SourceAlpha" type="matrix" values="0 0 0 0 0 0 0 0 0 0 0 0 0 0 0 0 0 0 127 0" result="hardAlpha"/>
<feOffset dx="-1.18306" dy="1.18306"/>
<feGaussianBlur stdDeviation="4.73225"/>
<feComposite in2="hardAlpha" operator="out"/>
<feColorMatrix type="matrix" values="0 0 0 0 1 0 0 0 0 1 0 0 0 0 1 0 0 0 0.75 0"/>
<feBlend mode="normal" in2="BackgroundImageFix" result="effect1_dropShadow_296_876"/>
<feBlend mode="normal" in="SourceGraphic" in2="effect1_dropShadow_296_876" result="shape"/>
</filter>
<clipPath id="clip0_296_876">
<rect width="564.255" height="102" fill="white" transform="translate(0.87207 0.806396)"/>
</clipPath>
<clipPath id="clip1_296_876">
<rect width="576.146" height="50.8963" fill="white" transform="translate(13.6006 0.677246)"/>
</clipPath>
<clipPath id="clip2_296_876">
<rect width="576.146" height="50.8963" fill="white" transform="translate(15.6289 48.3181)"/>
</clipPath>
</defs>
</svg>
