<svg width="54" height="171" viewBox="0 0 54 171" fill="none" xmlns="http://www.w3.org/2000/svg">
<g clip-path="url(#clip0_296_856)">
<path d="M28.3331 77.0885L33.5078 82.2641C33.6938 82.4503 33.9957 82.4503 34.1817 82.2641L36.9093 79.536C37.0953 79.35 37.0953 79.0482 36.9093 78.8622L28.333 70.2839C28.1469 70.0977 27.8451 70.0977 27.659 70.2839L19.0858 78.859C18.8998 79.0451 18.8998 79.3468 19.0858 79.5329L21.8133 82.261C21.9994 82.4472 22.3013 82.4472 22.4873 82.261L27.659 77.0885C27.8453 76.9023 28.147 76.9023 28.3331 77.0885V77.0885Z" fill="#FAE232"/>
<path d="M16.0107 81.9347L13.2831 84.6629C13.097 84.849 13.097 85.1507 13.2831 85.3368L16.0105 88.0648C16.1966 88.251 16.4984 88.251 16.6845 88.0648L19.4121 85.3367C19.5982 85.1506 19.5982 84.8489 19.4121 84.6628L16.6846 81.9348C16.4986 81.7486 16.1969 81.7486 16.0107 81.9347Z" fill="#FAE232"/>
<path d="M28.3336 99.7167L36.9114 91.137C37.0975 90.9508 37.0975 90.649 36.9112 90.4629L34.1822 87.7363C33.996 87.5504 33.6944 87.5505 33.5083 87.7366L28.3336 92.912C28.1475 93.0982 27.8457 93.0982 27.6596 92.912L22.4875 87.7391C22.3015 87.5531 22.0002 87.5529 21.814 87.7386L19.0824 90.4631C18.8959 90.6492 18.8957 90.9511 19.082 91.1375L27.6596 99.7166C27.8458 99.9028 28.1475 99.9028 28.3336 99.7167Z" fill="#FAE232"/>
<path d="M39.3096 81.9364L36.5819 84.6646C36.3959 84.8507 36.3959 85.1524 36.5819 85.3385L39.3094 88.0666C39.4955 88.2528 39.7973 88.2528 39.9834 88.0666L42.711 85.3384C42.8971 85.1523 42.8971 84.8506 42.711 84.6645L39.9835 81.9364C39.7973 81.7504 39.4956 81.7504 39.3096 81.9364Z" fill="#FAE232"/>
<path d="M31.1134 84.6629L28.3341 81.8831C28.148 81.6969 27.8461 81.6969 27.6601 81.8831L24.8808 84.6629C24.6947 84.849 24.6947 85.1507 24.8808 85.3368L27.6601 88.1169C27.8461 88.3031 28.148 88.3031 28.3341 88.1169L31.1134 85.3368C31.2994 85.1506 31.2994 84.849 31.1134 84.6629Z" fill="#FAE232"/>
</g>
<path d="M30.2091 2.91L30.2091 0.389999L31.3971 0.389999L31.3971 6.822L30.2091 6.822L30.2091 4.302L22.9971 4.302L22.9971 2.91L30.2091 2.91ZM31.3971 8.50406L31.3971 13.5921L30.2331 14.7561L27.8811 14.7561L27.3651 14.2401L26.4771 15.1281L24.2571 15.1281L22.9971 13.8681L22.9971 8.50406L31.3971 8.50406ZM27.7851 12.8961L28.2771 13.3881L29.7411 13.3881L30.2211 12.9081L30.2211 9.86006L27.7851 9.86006L27.7851 12.8961ZM24.1731 13.1841L24.7491 13.7601L26.0931 13.7601L26.6571 13.1841L26.6571 9.86006L24.1731 9.86006L24.1731 13.1841ZM31.3971 19.3774L31.3971 20.6974L22.9971 23.7334L22.9971 22.3174L24.9891 21.5974L24.9891 18.4654L22.9971 17.7454L22.9971 16.3294L31.3971 19.3774ZM26.1531 21.2734L29.7051 20.0374L29.7051 20.0134L26.1531 18.8014L26.1531 21.2734Z" fill="white"/>
<path d="M30.2091 149.91L30.2091 147.39L31.3971 147.39L31.3971 153.822L30.2091 153.822L30.2091 151.302L22.9971 151.302L22.9971 149.91L30.2091 149.91ZM31.3971 155.504L31.3971 160.592L30.2331 161.756L27.8811 161.756L27.3651 161.24L26.4771 162.128L24.2571 162.128L22.9971 160.868L22.9971 155.504L31.3971 155.504ZM27.7851 159.896L28.2771 160.388L29.7411 160.388L30.2211 159.908L30.2211 156.86L27.7851 156.86L27.7851 159.896ZM24.1731 160.184L24.7491 160.76L26.0931 160.76L26.6571 160.184L26.6571 156.86L24.1731 156.86L24.1731 160.184ZM31.3971 166.377L31.3971 167.697L22.9971 170.733L22.9971 169.317L24.9891 168.597L24.9891 165.465L22.9971 164.745L22.9971 163.329L31.3971 166.377ZM26.1531 168.273L29.7051 167.037L29.7051 167.013L26.1531 165.801L26.1531 168.273Z" fill="#FAE232"/>
<circle cx="27.4971" cy="85.5" r="26" stroke="#FAE232"/>
<defs>
<clipPath id="clip0_296_856">
<rect width="30" height="30" fill="white" transform="translate(12.9971 70)"/>
</clipPath>
</defs>
</svg>
